# xmcd
#
# Track frame offsets: 
#        183
#        13160
#        31810
#        80180
#        98190
#
# Disc length: 1558 seconds
#
# Revision: 3
# Processed by: cddbd v1.5.2PL0 Copyright (c) Steve Scherf et al.
# Submitted via: ExactAudioCopy v1.3
#
DISCID=36061405
DTITLE=The Beach Boys - Good Vibrations [Special Bonus CD]
DYEAR=1993
DGENRE=Pop
TTITLE0=Bluebirds Over The Mountain
TTITLE1=Tears In The Morning
TTITLE2=Here Come The Night [12" Version]
TTITLE3=Lady Lynda
TTITLE4=Sumahama
EXTD=Input by Bill (whall@netcomuk.co.uk) YEAR: 1993
EXTT0=
EXTT1=
EXTT2=
EXTT3=
EXTT4=
PLAYORDER=
